{
  "accessors": [
    {
      "bufferView": 2,
      "componentType": 5126,
      "count": 3643,
      "max": [
        -0.15240827202796936,
        2.3995213508605957,
        1.2492735385894775
      ],
      "min": [
        -1.1348044872283936,
        -2.3995213508605957,
        -0.5338934659957886
      ],
      "type": "VEC3"
    },
    {
      "bufferView": 2,
      "byteOffset": 43716,
      "componentType": 5126,
      "count": 3643,
      "max": [
        0.9999907612800598,
        0.9989913702011108,
        0.9989305138587952
      ],
      "min": [
        -0.9999999403953552,
        -0.9989917278289795,
        -0.9989327192306519
      ],
      "type": "VEC3"
    },
    {
      "bufferView": 1,
      "componentType": 5126,
      "count": 3643,
      "max": [
        0.8750002384185791,
        1.000000238418579
      ],
      "min": [
        0.1250000149011612,
        0.0
      ],
      "type": "VEC2"
    },
    {
      "bufferView": 0,
      "componentType": 5125,
      "count": 17952,
      "type": "SCALAR"
    },
    {
      "bufferView": 2,
      "byteOffset": 87432,
      "componentType": 5126,
      "count": 249,
      "max": [
        0.4128872752189636,
        2.5493826866149902,
        0.15608593821525574
      ],
      "min": [
        -0.4128872752189636,
        -2.7993826866149902,
        -1.1114840507507324
      ],
      "type": "VEC3"
    },
    {
      "bufferView": 2,
      "byteOffset": 90420,
      "componentType": 5126,
      "count": 249,
      "max": [
        0.9999948740005493,
        0.999716579914093,
        0.9999997019767761
      ],
      "min": [
        -0.9999948143959045,
        -0.9997670650482178,
        -0.9999997019767761
      ],
      "type": "VEC3"
    },
    {
      "bufferView": 1,
      "byteOffset": 29144,
      "componentType": 5126,
      "count": 249,
      "max": [
        0.8750001192092896,
        1.0000001192092896
      ],
      "min": [
        0.1250000149011612,
        0.0
      ],
      "type": "VEC2"
    },
    {
      "bufferView": 0,
      "byteOffset": 71808,
      "componentType": 5125,
      "count": 1152,
      "type": "SCALAR"
    },
    {
      "bufferView": 2,
      "byteOffset": 93408,
      "componentType": 5126,
      "count": 3666,
      "max": [
        1.132176399230957,
        2.3995213508605957,
        0.522148072719574
      ],
      "min": [
        -0.43412625789642334,
        -2.3995213508605957,
        -0.8753757476806641
      ],
      "type": "VEC3"
    },
    {
      "bufferView": 2,
      "byteOffset": 137400,
      "componentType": 5126,
      "count": 3666,
      "max": [
        0.999215304851532,
        0.9989924430847168,
        0.9996699094772339
      ],
      "min": [
        -0.9997290372848511,
        -0.9989913702011108,
        -0.999311625957489
      ],
      "type": "VEC3"
    },
    {
      "bufferView": 1,
      "byteOffset": 31136,
      "componentType": 5126,
      "count": 3666,
      "max": [
        0.8750002384185791,
        1.000000238418579
      ],
      "min": [
        0.1250000149011612,
        0.0
      ],
      "type": "VEC2"
    },
    {
      "bufferView": 0,
      "byteOffset": 76416,
      "componentType": 5125,
      "count": 17952,
      "type": "SCALAR"
    }
  ],
  "asset": {
    "extras": {
      "author": "MaggaModels (https://sketchfab.com/MaggaModels)",
      "license": "CC-BY-4.0 (http://creativecommons.org/licenses/by/4.0/)",
      "source": "https://sketchfab.com/3d-models/hot-dog-5bec36e4ffb1434e8136088a6314bb6c",
      "title": "Hot Dog"
    },
    "generator": "Sketchfab-13.42.0",
    "version": "2.0"
  },
  "bufferViews": [
    {
      "buffer": 0,
      "byteLength": 148224,
      "name": "floatBufferViews",
      "target": 34963
    },
    {
      "buffer": 0,
      "byteLength": 60464,
      "byteOffset": 148224,
      "byteStride": 8,
      "name": "floatBufferViews",
      "target": 34962
    },
    {
      "buffer": 0,
      "byteLength": 181392,
      "byteOffset": 208688,
      "byteStride": 12,
      "name": "floatBufferViews",
      "target": 34962
    }
  ],
  "buffers": [
    {
      "byteLength": 390080,
      "uri": "scene.bin"
    }
  ],
  "images": [
    {
      "uri": "textures/bunleft_baseColor.png"
    },
    {
      "uri": "textures/hotdog_baseColor.png"
    },
    {
      "uri": "textures/bunright_baseColor.png"
    }
  ],
  "materials": [
    {
      "doubleSided": true,
      "name": "bunleft",
      "pbrMetallicRoughness": {
        "baseColorTexture": {
          "index": 0
        },
        "metallicFactor": 0.0
      }
    },
    {
      "doubleSided": true,
      "name": "hotdog",
      "pbrMetallicRoughness": {
        "baseColorTexture": {
          "index": 1
        },
        "metallicFactor": 0.0,
        "roughnessFactor": 0.5
      }
    },
    {
      "doubleSided": true,
      "name": "bunright",
      "pbrMetallicRoughness": {
        "baseColorTexture": {
          "index": 2
        },
        "metallicFactor": 0.0
      }
    }
  ],
  "meshes": [
    {
      "name": "BunLeft_bunleft_0",
      "primitives": [
        {
          "attributes": {
            "NORMAL": 1,
            "POSITION": 0,
            "TEXCOORD_0": 2
          },
          "indices": 3,
          "material": 0,
          "mode": 4
        }
      ]
    },
    {
      "name": "Hot Dog_hotdog_0",
      "primitives": [
        {
          "attributes": {
            "NORMAL": 5,
            "POSITION": 4,
            "TEXCOORD_0": 6
          },
          "indices": 7,
          "material": 1,
          "mode": 4
        }
      ]
    },
    {
      "name": "BunRight_bunright_0",
      "primitives": [
        {
          "attributes": {
            "NORMAL": 9,
            "POSITION": 8,
            "TEXCOORD_0": 10
          },
          "indices": 11,
          "material": 2,
          "mode": 4
        }
      ]
    }
  ],
  "nodes": [
    {
      "children": [
        1
      ],
      "matrix": [
        1.0,
        0.0,
        0.0,
        0.0,
        0.0,
        2.220446049250313e-16,
        -1.0,
        0.0,
        0.0,
        1.0,
        2.220446049250313e-16,
        0.0,
        0.0,
        0.0,
        0.0,
        1.0
      ],
      "name": "Sketchfab_model"
    },
    {
      "children": [
        2
      ],
      "matrix": [
        0.009999999776482582,
        0.0,
        0.0,
        0.0,
        0.0,
        0.0,
        0.009999999776482582,
        0.0,
        0.0,
        -0.009999999776482582,
        0.0,
        0.0,
        0.0,
        0.0,
        0.0,
        1.0
      ],
      "name": "3cd49acfe253456395a4a114a4bf7548.fbx"
    },
    {
      "children": [
        3,
        5,
        7
      ],
      "name": "RootNode"
    },
    {
      "children": [
        4
      ],
      "matrix": [
        86.60254263015284,
        49.99999609992541,
        2.181681324486817e-06,
        0.0,
        -1.8855031841402692e-06,
        7.629150644561378e-06,
        -99.99999999999967,
        0.0,
        -49.99999609992543,
        86.60254263015251,
        7.549789959870878e-06,
        0.0,
        10.0,
        0.0,
        0.0,
        1.0
      ],
      "name": "BunLeft"
    },
    {
      "mesh": 0,
      "name": "BunLeft_bunleft_0"
    },
    {
      "children": [
        6
      ],
      "matrix": [
        100.0,
        0.0,
        0.0,
        0.0,
        0.0,
        -1.629206793918314e-05,
        -99.99999999999868,
        0.0,
        0.0,
        99.99999999999868,
        -1.629206793918314e-05,
        0.0,
        0.0,
        90.0,
        0.0,
        1.0
      ],
      "name": "Hot Dog"
    },
    {
      "mesh": 1,
      "name": "Hot Dog_hotdog_0"
    },
    {
      "children": [
        8
      ],
      "matrix": [
        86.60254263015284,
        49.99999609992541,
        2.181681324486817e-06,
        0.0,
        -1.8855031841402692e-06,
        7.629150644561378e-06,
        -99.99999999999967,
        0.0,
        -49.99999609992543,
        86.60254263015251,
        7.549789959870878e-06,
        0.0,
        10.0,
        0.0,
        0.0,
        1.0
      ],
      "name": "BunRight"
    },
    {
      "mesh": 2,
      "name": "BunRight_bunright_0"
    }
  ],
  "samplers": [
    {
      "magFilter": 9729,
      "minFilter": 9987,
      "wrapS": 10497,
      "wrapT": 10497
    }
  ],
  "scene": 0,
  "scenes": [
    {
      "name": "Sketchfab_Scene",
      "nodes": [
        0
      ]
    }
  ],
  "textures": [
    {
      "sampler": 0,
      "source": 0
    },
    {
      "sampler": 0,
      "source": 1
    },
    {
      "sampler": 0,
      "source": 2
    }
  ]
}
